Model2392_S4_states																							
version=1																							
nRows=76																							
nColumns=24																							
inDegrees=yes																							
																							
"Units are S.I. units (second, meters, Newtons, ...)"																							
Angles are in degrees.																							
																							
endheader																							
time	pelvis_tilt	pelvis_list	pelvis_rotation	pelvis_tx	pelvis_ty	pelvis_tz	hip_flexion_r	hip_adduction_r	hip_rotation_r	knee_angle_r	ankle_angle_r	subtalar_angle_r	mtp_angle_r	hip_flexion_l	hip_adduction_l	hip_rotation_l	knee_angle_l	ankle_angle_l	subtalar_angle_l	mtp_angle	lumbar_extension	lumbar_bending	lumbar_rotation
1.26792869	0	0	0	0	0.95	0	8.28737106	0	0	-55.98774816	-6.89402939	0	0	6.4373624	0	0	-8.30499942	5.17665449	0	0	0	0	0
1.26931295	0	0	0	0	0.95	0	8.47942169	0	0	-56.09761402	-6.63167662	0	0	6.25622434	0	0	-8.21770614	5.16049469	0	0	0	0	0
1.26968536	0	0	0	0	0.95	0	8.53098686	0	0	-56.12628021	-6.56232548	0	0	6.20770533	0	0	-8.19471821	5.15708534	0	0	0	0	0
1.26995605	0	0	0	0	0.95	0	8.56844125	0	0	-56.14687827	-6.51231089	0	0	6.17249624	0	0	-8.17814468	5.15489025	0	0	0	0	0
1.27003016	0	0	0	0	0.95	0	8.5786913	0	0	-56.15248239	-6.49867922	0	0	6.16286555	0	0	-8.17362737	5.15433222	0	0	0	0	0
1.27010427	0	0	0	0	0.95	0	8.58893969	0	0	-56.15807144	-6.48507441	0	0	6.15323852	0	0	-8.1691187	5.15379294	0	0	0	0	0
1.27047481	0	0	0	0	0.95	0	8.64015693	0	0	-56.18579058	-6.41746484	0	0	6.10515864	0	0	-8.1467054	5.15138136	0	0	0	0	0
1.27126027	0	0	0	0	0.95	0	8.74859141	0	0	-56.24330292	-6.27654895	0	0	6.00354562	0	0	-8.09991373	5.14784267	0	0	0	0	0
1.27254392	0	0	0	0	0.95	0	8.92540959	0	0	-56.33366054	-6.05359477	0	0	5.83838132	0	0	-8.02554033	5.14635866	0	0	0	0	0
1.27407102	0	0	0	0	0.95	0	9.1351194	0	0	-56.43536183	-5.79968552	0	0	5.64333233	0	0	-7.94034554	5.14980115	0	0	0	0	0
1.27538574	0	0	0	0	0.95	0	9.31508542	0	0	-56.51800427	-5.58910453	0	0	5.47662947	0	0	-7.86967589	5.15460351	0	0	0	0	0
1.27638094	0	0	0	0	0.95	0	9.45093542	0	0	-56.57762609	-5.43302487	0	0	5.35117012	0	0	-7.81770006	5.15749676	0	0	0	0	0
1.27737613	0	0	0	0	0.95	0	9.58644223	0	0	-56.63478958	-5.27839785	0	0	5.22631974	0	0	-7.766933	5.1583128	0	0	0	0	0
1.27874326	0	0	0	0	0.95	0	9.77200095	0	0	-56.70942517	-5.06595945	0	0	5.05577542	0	0	-7.69901447	5.15386988	0	0	0	0	0
1.27938408	0	0	0	0	0.95	0	9.85873359	0	0	-56.74289958	-4.9655687	0	0	4.97621307	0	0	-7.66786082	5.14891915	0	0	0	0	0
1.27992913	0	0	0	0	0.95	0	9.93237744	0	0	-56.77062809	-4.87946251	0	0	4.90872823	0	0	-7.64169142	5.14305146	0	0	0	0	0
1.28001458	0	0	0	0	0.95	0	9.94391283	0	0	-56.77491413	-4.86589125	0	0	4.89816333	0	0	-7.63761548	5.14198663	0	0	0	0	0
1.28010004	0	0	0	0	0.95	0	9.9554453	0	0	-56.77918363	-4.85229906	0	0	4.88760265	0	0	-7.63354679	5.14088169	0	0	0	0	0
1.28052731	0	0	0	0	0.95	0	10.01306379	0	0	-56.80028427	-4.78400626	0	0	4.8348624	0	0	-7.61331187	5.1347485	0	0	0	0	0
1.2817771	0	0	0	0	0.95	0	10.18117949	0	0	-56.85966662	-4.58074764	0	0	4.68120079	0	0	-7.55516676	5.11102772	0	0	0	0	0
1.2830269	0	0	0	0	0.95	0	10.34867266	0	0	-56.91560326	-4.37210201	0	0	4.52846051	0	0	-7.49864613	5.07957517	0	0	0	0	0
1.2842202	0	0	0	0	0.95	0	10.5080341	0	0	-56.96581374	-4.16851364	0	0	4.38352192	0	0	-7.44635862	5.04440864	0	0	0	0	0
1.2854135	0	0	0	0	0.95	0	10.66687979	0	0	-57.0128975	-3.96200567	0	0	4.23951124	0	0	-7.39593278	5.00707495	0	0	0	0	0
1.28660681	0	0	0	0	0.95	0	10.82524893	0	0	-57.0568416	-3.75432264	0	0	4.09648547	0	0	-7.34761962	4.97080225	0	0	0	0	0
1.28764912	0	0	0	0	0.95	0	10.96321583	0	0	-57.09263427	-3.57342242	0	0	3.97240696	0	0	-7.30734482	4.94253225	0	0	0	0	0
1.28892385	0	0	0	0	0.95	0	11.13151278	0	0	-57.13308973	-3.35463287	0	0	3.82178835	0	0	-7.26075389	4.91522618	0	0	0	0	0
1.28948164	0	0	0	0	0.95	0	11.20501307	0	0	-57.14963869	-3.26019571	0	0	3.75628235	0	0	-7.24133883	4.90646417	0	0	0	0	0
1.2898133	0	0	0	0	0.95	0	11.24867706	0	0	-57.15914683	-3.20450449	0	0	3.71745051	0	0	-7.23008316	4.90228377	0	0	0	0	0
1.28995053	0	0	0	0	0.95	0	11.26673552	0	0	-57.16300832	-3.18156836	0	0	3.70140868	0	0	-7.22548933	4.90078693	0	0	0	0	0
1.29002136	0	0	0	0	0.95	0	11.27605431	0	0	-57.16498471	-3.16975543	0	0	3.69313471	0	0	-7.22313284	4.90006851	0	0	0	0	0
1.29009219	0	0	0	0	0.95	0	11.28537178	0	0	-57.16694974	-3.15796002	0	0	3.68486477	0	0	-7.2207863	4.89938724	0	0	0	0	0
1.29044634	0	0	0	0	0.95	0	11.33193923	0	0	-57.17660421	-3.09925255	0	0	3.64357535	0	0	-7.20920302	4.89654282	0	0	0	0	0
1.29136625	0	0	0	0	0.95	0	11.45274475	0	0	-57.20035134	-2.9489885	0	0	3.53679439	0	0	-7.18027648	4.89353994	0	0	0	0	0
1.29295581	0	0	0	0	0.95	0	11.66097363	0	0	-57.23686334	-2.69753719	0	0	3.35384334	0	0	-7.13412086	4.90204564	0	0	0	0	0
1.29454538	0	0	0	0	0.95	0	11.86854494	0	0	-57.2677012	-2.45652157	0	0	3.17275734	0	0	-7.09235299	4.92265558	0	0	0	0	0
1.29551134	0	0	0	0	0.95	0	11.99434832	0	0	-57.28370606	-2.3146059	0	0	3.06354672	0	0	-7.06879058	4.93726411	0	0	0	0	0
1.2964773	0	0	0	0	0.95	0	12.11988295	0	0	-57.29767415	-2.17548099	0	0	2.95490982	0	0	-7.04636435	4.95056471	0	0	0	0	0
1.29804185	0	0	0	0	0.95	0	12.32260281	0	0	-57.31605795	-1.9543387	0	0	2.78005527	0	0	-7.01195663	4.96330939	0	0	0	0	0
1.29907591	0	0	0	0	0.95	0	12.45615705	0	0	-57.3253968	-1.80975476	0	0	2.66516491	0	0	-6.99021645	4.9621207	0	0	0	0	0
1.29953788	0	0	0	0	0.95	0	12.51570535	0	0	-57.32885897	-1.7452928	0	0	2.61400051	0	0	-6.98070916	4.95848146	0	0	0	0	0
1.29982782	0	0	0	0	0.95	0	12.55304226	0	0	-57.33081148	-1.70482946	0	0	2.58193812	0	0	-6.97479976	4.95513271	0	0	0	0	0
1.29998874	0	0	0	0	0.95	0	12.57375272	0	0	-57.33182208	-1.68236163	0	0	2.56415892	0	0	-6.97153814	4.95290904	0	0	0	0	0
1.30000915	0	0	0	0	0.95	0	12.57637876	0	0	-57.33194654	-1.67951137	0	0	2.56190482	0	0	-6.97112538	4.95260816	0	0	0	0	0
1.30002956	0	0	0	0	0.95	0	12.57900467	0	0	-57.33207016	-1.67666094	0	0	2.55965091	0	0	-6.97071282	4.95230302	0	0	0	0	0
1.30013161	0	0	0	0	0.95	0	12.592132	0	0	-57.33267571	-1.66240599	0	0	2.54838412	0	0	-6.96865307	4.95071316	0	0	0	0	0
1.30064186	0	0	0	0	0.95	0	12.65771373	0	0	-57.33539096	-1.59104385	0	0	2.49211929	0	0	-6.9584288	4.94114795	0	0	0	0	0
1.30193256	0	0	0	0	0.95	0	12.82319182	0	0	-57.33994812	-1.40964721	0	0	2.35030846	0	0	-6.93312958	4.90516786	0	0	0	0	0
1.30322327	0	0	0	0	0.95	0	12.9880676	0	0	-57.34120645	-1.22703138	0	0	2.20926846	0	0	-6.90879365	4.85463113	0	0	0	0	0
1.30436187	0	0	0	0	0.95	0	13.13301898	0	0	-57.33957557	-1.06557397	0	0	2.08555633	0	0	-6.88843956	4.80239267	0	0	0	0	0
1.30550047	0	0	0	0	0.95	0	13.27752382	0	0	-57.33536874	-0.90477877	0	0	1.96259331	0	0	-6.86953616	4.74855513	0	0	0	0	0
1.30663907	0	0	0	0	0.95	0	13.42160094	0	0	-57.32857539	-0.74577989	0	0	1.84047366	0	0	-6.85252746	4.69915587	0	0	0	0	0
1.30777767	0	0	0	0	0.95	0	13.56527287	0	0	-57.31919271	-0.58971705	0	0	1.71928797	0	0	-6.83784637	4.66009853	0	0	0	0	0
1.30896392	0	0	0	0	0.95	0	13.71454637	0	0	-57.30666565	-0.43132735	0	0	1.59410332	0	0	-6.82541365	4.63579775	0	0	0	0	0
1.30953071	0	0	0	0	0.95	0	13.78572924	0	0	-57.29969479	-0.35742409	0	0	1.53469092	0	0	-6.82058583	4.63128715	0	0	0	0	0
1.30985582	0	0	0	0	0.95	0	13.82651902	0	0	-57.29540987	-0.31559274	0	0	1.500731	0	0	-6.81815091	4.6309328	0	0	0	0	0
1.3100004	0	0	0	0	0.95	0	13.84465028	0	0	-57.29343737	-0.29712351	0	0	1.48565571	0	0	-6.81714676	4.63130887	0	0	0	0	0
1.31005189	0	0	0	0	0.95	0	13.85110541	0	0	-57.29272504	-0.29056688	0	0	1.48029156	0	0	-6.8168009	4.63152261	0	0	0	0	0
1.31010338	0	0	0	0	0.95	0	13.85755981	0	0	-57.29200752	-0.28402092	0	0	1.47492958	0	0	-6.81646119	4.63177836	0	0	0	0	0
1.31036081	0	0	0	0	0.95	0	13.88982106	0	0	-57.28834193	-0.25145215	0	0	1.44815211	0	0	-6.81485476	4.6336875	0	0	0	0	0
1.31164799	0	0	0	0	0.95	0	14.05086072	0	0	-57.2680769	-0.09268359	0	0	1.3150587	0	0	-6.80906766	4.65852147	0	0	0	0	0
1.31293516	0	0	0	0	0.95	0	14.21145518	0	0	-57.24461669	0.0594073	0	0	1.18319471	0	0	-6.80666121	4.70508838	0	0	0	0	0
1.31446453	0	0	0	0	0.95	0	14.40166496	0	0	-57.21264342	0.23229886	0	0	1.02784182	0	0	-6.80708254	4.77618441	0	0	0	0	0
1.31555003	0	0	0	0	0.95	0	14.53624639	0	0	-57.18728284	0.35075709	0	0	0.91823368	0	0	-6.80864607	4.82664106	0	0	0	0	0
1.31663552	0	0	0	0	0.95	0	14.67044911	0	0	-57.1597254	0.4665477	0	0	0.80899268	0	0	-6.81051867	4.86837472	0	0	0	0	0
1.31814046	0	0	0	0	0.95	0	14.85583071	0	0	-57.11790283	0.62414641	0	0	0.65789086	0	0	-6.81255069	4.89907792	0	0	0	0	0
1.3196454	0	0	0	0	0.95	0	15.04035128	0	0	-57.07188117	0.7800888	0	0	0.50696054	0	0	-6.81293435	4.88664146	0	0	0	0	0
1.31987255	0	0	0	0	0.95	0	15.06812417	0	0	-57.06457098	0.80358412	0	0	0.48418489	0	0	-6.81281122	4.88060026	0	0	0	0	0
1.31999176	0	0	0	0	0.95	0	15.08268965	0	0	-57.06069655	0.81591426	0	0	0.47223359	0	0	-6.81272695	4.87698827	0	0	0	0	0
1.32000997	0	0	0	0	0.95	0	15.08491484	0	0	-57.06010219	0.81779849	0	0	0.47040737	0	0	-6.81271288	4.87640963	0	0	0	0	0
1.32002819	0	0	0	0	0.95	0	15.08713988	0	0	-57.05950721	0.81968275	0	0	0.46858116	0	0	-6.8126985	4.87582393	0	0	0	0	0
1.32011926	0	0	0	0	0.95	0	15.09826301	0	0	-57.05652306	0.82910461	0	0	0.45945023	0	0	-6.81262188	4.87278964	0	0	0	0	0
1.32057463	0	0	0	0	0.95	0	15.15382598	0	0	-57.04137099	0.87623374	0	0	0.41379874	0	0	-6.81212315	4.85500581	0	0	0	0	0
1.32138546	0	0	0	0	0.95	0	15.25253832	0	0	-57.01343299	0.96026009	0	0	0.33253445	0	0	-6.810798	4.81314441	0	0	0	0	0
1.32259921	0	0	0	0	0.95	0	15.39975807	0	0	-56.96929228	1.08619376	0	0	0.21101292	0	0	-6.80810378	4.73065346	0	0	0	0	0
1.32381296	0	0	0	0	0.95	0	15.54630861	0	0	-56.92232518	1.21172923	0	0	0.08982361	0	0	-6.80537512	4.63519481	0	0	0	0	0
1.32565041	0	0	0	0	0.95	0	15.76688499	0	0	-56.84572728	1.3986603	0	0	-0.09243856	0	0	-6.80376249	4.49958775	0	0	0	0	0
